<svg width="400" height="377" viewBox="0 0 400 377" fill="none" xmlns="http://www.w3.org/2000/svg">
<path d="M208.209 1.769C254.648 -4.64173 301.93 5.95974 338.208 40.3285C374.302 74.5232 397.298 130.149 399.991 209.491L400 209.755V210.02C400 310.771 323.496 371.297 247.096 376.152C208.774 378.587 169.726 367.114 140.216 339.157C110.586 311.087 92.1654 267.934 92.1654 210.02V209.671L92.1816 209.322C93.3346 183.573 105.739 159.149 122.632 140.102C139.539 121.039 162.149 105.973 185.869 99.8714C209.926 93.6824 236.206 96.6252 256.933 115.603C277.081 134.05 289.17 165.141 291.6 209.16L291.643 209.942L291.608 210.725C290.477 235.713 281.819 254.882 267.732 266.917C253.689 278.913 235.852 282.369 219.818 278.707C203.833 275.057 189.401 264.281 182.053 247.843C174.627 231.233 175.24 210.794 185.309 188.998C188.955 181.107 198.358 177.643 206.311 181.26C214.264 184.876 217.756 194.204 214.111 202.095C206.986 217.517 208.018 228.395 211.015 235.1C214.089 241.977 220.086 246.514 226.924 248.075C233.712 249.625 241.095 248.191 247.058 243.097C252.895 238.112 258.941 228.201 259.917 210.09C257.611 170.586 246.953 149.238 235.446 138.703C224.441 128.627 210.071 126.118 193.821 130.298C177.233 134.565 159.877 145.691 146.418 160.866C133.036 175.955 124.698 193.679 123.85 210.383C123.926 261.34 140 295.491 162.096 316.424C184.364 337.52 214.354 346.735 245.071 344.783C306.687 340.868 368.199 292.41 368.315 210.252C365.751 136.24 344.478 89.7317 316.327 63.0616C288.322 36.5301 251.325 27.553 212.575 32.9022C133.718 43.7881 52.9045 113.277 41.3971 202.705C40.2892 211.315 32.3559 217.404 23.6773 216.305C14.9988 215.206 8.8613 207.335 9.96905 198.725C23.4717 93.7891 116.686 14.4033 208.209 1.769Z" fill="#E4EBE6"/>
<path d="M49.8221 284.514C49.8221 298.272 38.669 309.425 24.911 309.425C11.1531 309.425 0 298.272 0 284.514C0 270.756 11.1531 259.603 24.911 259.603C38.669 259.603 49.8221 270.756 49.8221 284.514Z" fill="#E4EBE6"/>
</svg>
