<svg width="25" height="25" viewBox="0 0 25 25" fill="none" xmlns="http://www.w3.org/2000/svg">
<rect width="25" height="25" fill="#A8BFAF"/>
<path d="M10.4165 2.0835V4.16603" stroke="#FFFCF5" stroke-width="1.66602" stroke-linecap="round" stroke-linejoin="round"/>
<path d="M14.5835 2.0835V4.16603" stroke="#FFFCF5" stroke-width="1.66602" stroke-linecap="round" stroke-linejoin="round"/>
<path d="M16.6667 8.3335C16.9429 8.3335 17.2079 8.44324 17.4032 8.63859C17.5986 8.83394 17.7083 9.0989 17.7083 9.37516V17.7085C17.7083 18.8136 17.2693 19.8734 16.4879 20.6548C15.7065 21.4362 14.6467 21.8752 13.5417 21.8752H7.29167C6.1866 21.8752 5.12679 21.4362 4.34539 20.6548C3.56399 19.8734 3.125 18.8136 3.125 17.7085V9.37516C3.125 9.0989 3.23475 8.83394 3.4301 8.63859C3.62545 8.44324 3.8904 8.3335 4.16667 8.3335H18.75C19.8551 8.3335 20.9149 8.77248 21.6963 9.55388C22.4777 10.3353 22.9167 11.3951 22.9167 12.5002C22.9167 13.6052 22.4777 14.665 21.6963 15.4464C20.9149 16.2278 19.8551 16.6668 18.75 16.6668H17.7083" stroke="#FFFCF5" stroke-width="1.66602" stroke-linecap="round" stroke-linejoin="round"/>
<path d="M6.25 2.0835V4.16603" stroke="#FFFCF5" stroke-width="1.66602" stroke-linecap="round" stroke-linejoin="round"/>
</svg>
