<svg width="24" height="24" viewBox="0 0 24 24" fill="none" xmlns="http://www.w3.org/2000/svg">
<path d="M11 7L8 12H12L9 17" stroke="#A8BFAF" stroke-width="2" stroke-linecap="round" stroke-linejoin="round"/>
<path d="M14.8559 6H15.9999C16.5303 6 17.039 6.21071 17.4141 6.58579C17.7892 6.96086 17.9999 7.46957 17.9999 8V16C17.9999 16.5304 17.7892 17.0391 17.4141 17.4142C17.039 17.7893 16.5303 18 15.9999 18H13.0649" stroke="#A8BFAF" stroke-width="2" stroke-linecap="round" stroke-linejoin="round"/>
<path d="M22 14V10" stroke="#A8BFAF" stroke-width="2" stroke-linecap="round" stroke-linejoin="round"/>
<path d="M5.14 18H4C3.46957 18 2.96086 17.7893 2.58579 17.4142C2.21071 17.0391 2 16.5304 2 16V8C2 7.46957 2.21071 6.96086 2.58579 6.58579C2.96086 6.21071 3.46957 6 4 6H6.936" stroke="#A8BFAF" stroke-width="2" stroke-linecap="round" stroke-linejoin="round"/>
</svg>
