<svg width="22" height="27" viewBox="0 0 22 27" fill="none" xmlns="http://www.w3.org/2000/svg">
<path d="M1.94749 15.8324C1.7373 15.8332 1.53123 15.7669 1.35321 15.6411C1.1752 15.5154 1.03254 15.3354 0.941811 15.1221C0.851086 14.9088 0.816018 14.6709 0.840682 14.436C0.865347 14.2012 0.948731 13.979 1.08115 13.7954L12.077 1.04871C12.1595 0.941587 12.2719 0.869199 12.3957 0.843427C12.5196 0.817654 12.6476 0.840027 12.7586 0.906874C12.8697 0.973721 12.9573 1.08107 13.007 1.2113C13.0567 1.34153 13.0656 1.4869 13.0322 1.62356L10.8996 9.1466C10.8368 9.33595 10.8156 9.53965 10.8381 9.7402C10.8606 9.94076 10.9259 10.1322 11.0286 10.2981C11.1313 10.464 11.2681 10.5994 11.4275 10.6926C11.5869 10.7859 11.764 10.8343 11.9437 10.8337H19.7185C19.9287 10.8329 20.1348 10.8992 20.3128 11.0249C20.4908 11.1506 20.6335 11.3306 20.7242 11.5439C20.8149 11.7572 20.85 11.9951 20.8253 12.23C20.8007 12.4648 20.7173 12.687 20.5849 12.8706L9.58904 25.6173C9.50655 25.7244 9.39415 25.7968 9.27029 25.8226C9.14642 25.8484 9.01845 25.826 8.90737 25.7591C8.79629 25.6923 8.70872 25.5849 8.65901 25.4547C8.60931 25.3245 8.60043 25.1791 8.63384 25.0425L10.7664 17.5194C10.8292 17.3301 10.8504 17.1264 10.8279 16.9258C10.8055 16.7253 10.7401 16.5338 10.6374 16.3679C10.5348 16.202 10.3979 16.0667 10.2385 15.9734C10.0791 15.8801 9.90198 15.8317 9.72232 15.8324H1.94749Z" fill="#A8BFAF" stroke="#FFFCF5" stroke-width="1.66602" stroke-linecap="round" stroke-linejoin="round"/>
</svg>
