<svg width="180" height="180" viewBox="0 0 180 180" fill="none" xmlns="http://www.w3.org/2000/svg">
<g clip-path="url(#clip0_2_5140)">
<circle cx="90" cy="90" r="90" fill="#F2F5F3"/>
<circle cx="90" cy="90" r="80" fill="#E4EBE6"/>
<path d="M90.6418 52.3538C99.9297 51.0717 109.386 53.1919 116.642 60.0657C123.86 66.9046 128.46 78.0297 128.998 93.8982L129 93.951V94.004C129 114.154 113.699 126.259 98.4192 127.23C90.7549 127.717 82.9453 125.423 77.0432 119.831C71.1173 114.217 67.4332 105.587 67.4332 94.004V93.9341L67.4364 93.8645C67.667 88.7145 70.1478 83.8298 73.5265 80.0203C76.9078 76.2078 81.4299 73.1947 86.1738 71.9743C90.9854 70.7365 96.2412 71.325 100.387 75.1205C104.416 78.8099 106.834 85.0282 107.32 93.8321L107.329 93.9885L107.322 94.145C107.095 99.1425 105.364 102.976 102.546 105.383C99.7378 107.783 96.1705 108.474 92.9636 107.741C89.7666 107.011 86.8803 104.856 85.4106 101.569C83.9255 98.2466 84.0481 94.1589 86.0619 89.7996C86.791 88.2215 88.6716 87.5286 90.2623 88.2519C91.8529 88.9752 92.5514 90.8408 91.8223 92.419C90.3973 95.5035 90.6036 97.6791 91.203 99.02C91.818 100.395 93.0172 101.303 94.3848 101.615C95.7425 101.925 97.219 101.638 98.4118 100.619C99.579 99.6223 100.788 97.6402 100.983 94.0179C100.522 86.1172 98.3907 81.8477 96.0892 79.7405C93.8883 77.7255 91.0142 77.2235 87.7643 78.0596C84.4467 78.913 80.9755 81.1383 78.2838 84.1732C75.6072 87.1911 73.9396 90.7358 73.7701 94.0766C73.7853 104.268 77.0001 111.098 81.4193 115.285C85.8729 119.504 91.8709 121.347 98.0142 120.957C110.337 120.174 122.64 110.482 122.663 94.0505C122.15 79.248 117.896 69.9463 112.265 64.6123C106.664 59.306 99.2651 57.5106 91.5151 58.5804C75.7436 60.7576 59.581 74.6554 57.2795 92.541C57.0579 94.263 55.4713 95.4808 53.7356 95.261C51.9999 95.0412 50.7724 93.467 50.9939 91.745C53.6945 70.7578 72.3373 54.8807 90.6418 52.3538Z" fill="#A8BFAF"/>
<path d="M58.9644 108.903C58.9644 111.654 56.7338 113.885 53.9822 113.885C51.2306 113.885 49 111.654 49 108.903C49 106.151 51.2306 103.92 53.9822 103.92C56.7338 103.92 58.9644 106.151 58.9644 108.903Z" fill="#A8BFAF"/>
</g>
<defs>
<clipPath id="clip0_2_5140">
<rect width="180" height="180" fill="white"/>
</clipPath>
</defs>
</svg>
