<svg width="24" height="24" viewBox="0 0 24 24" fill="none" xmlns="http://www.w3.org/2000/svg">
<circle cx="12" cy="12" r="11.5" fill="#E4EBE6" stroke="#769382"/>
<path d="M7.78368 18.1621H16.8648M12.0401 6.65898C12.0681 6.60813 12.1092 6.56573 12.1592 6.53619C12.2092 6.50666 12.2662 6.49108 12.3242 6.49108C12.3823 6.49108 12.4392 6.50666 12.4892 6.53619C12.5392 6.56573 12.5803 6.60813 12.6083 6.65898L14.5231 10.294C14.5688 10.3782 14.6325 10.4512 14.7098 10.5078C14.787 10.5644 14.8758 10.6033 14.9698 10.6215C15.0638 10.6397 15.1607 10.6369 15.2535 10.6133C15.3463 10.5896 15.4327 10.5457 15.5065 10.4847L18.2808 8.10806C18.334 8.06475 18.3996 8.03945 18.4682 8.0358C18.5367 8.03216 18.6047 8.05036 18.6622 8.08779C18.7198 8.12522 18.764 8.17994 18.7884 8.24408C18.8129 8.30822 18.8164 8.37846 18.7984 8.44471L16.9601 15.0908C16.9226 15.2268 16.8417 15.3468 16.7298 15.4327C16.6179 15.5187 16.4811 15.5657 16.34 15.5669H8.30908C8.16789 15.5659 8.03088 15.5189 7.91885 15.4329C7.80682 15.347 7.72588 15.2269 7.68833 15.0908L5.8507 8.44536C5.8327 8.37911 5.83619 8.30886 5.86065 8.24473C5.88512 8.18059 5.92931 8.12586 5.98686 8.08844C6.0444 8.05101 6.11234 8.03281 6.18089 8.03645C6.24944 8.04009 6.31507 8.06539 6.36832 8.10871L9.14195 10.4854C9.21576 10.5464 9.30217 10.5903 9.39496 10.6139C9.48775 10.6376 9.58463 10.6404 9.67864 10.6221C9.77265 10.6039 9.86145 10.5651 9.93868 10.5085C10.0159 10.4518 10.0796 10.3788 10.1253 10.2947L12.0401 6.65898Z" stroke="#769382" stroke-linecap="round" stroke-linejoin="round"/>
</svg>
