<svg width="25" height="25" viewBox="0 0 25 25" fill="none" xmlns="http://www.w3.org/2000/svg">
<rect width="25" height="25" fill="#A8BFAF"/>
<path d="M22.6353 18.7498L14.3019 4.16649C14.1202 3.84587 13.8567 3.57919 13.5383 3.39365C13.2199 3.20811 12.858 3.11035 12.4894 3.11035C12.1209 3.11035 11.759 3.20811 11.4406 3.39365C11.1222 3.57919 10.8587 3.84587 10.6769 4.16649L2.34362 18.7498C2.15995 19.0679 2.06364 19.4289 2.06446 19.7962C2.06527 20.1635 2.16318 20.524 2.34825 20.8413C2.53332 21.1586 2.79898 21.4213 3.1183 21.6028C3.43762 21.7843 3.79925 21.8781 4.16653 21.8748H20.8332C21.1987 21.8745 21.5577 21.7779 21.8741 21.5949C22.1905 21.4119 22.4532 21.1489 22.6358 20.8322C22.8184 20.5156 22.9145 20.1565 22.9144 19.791C22.9143 19.4254 22.818 19.0664 22.6353 18.7498Z" stroke="#FFFCF5" stroke-width="1.66602" stroke-linecap="round" stroke-linejoin="round"/>
<path d="M12.5 9.375V13.5417" stroke="#FFFCF5" stroke-width="1.66602" stroke-linecap="round" stroke-linejoin="round"/>
<path d="M12.5 17.7085H12.5104" stroke="#FFFCF5" stroke-width="1.66602" stroke-linecap="round" stroke-linejoin="round"/>
</svg>
